<svg viewBox="0 0 2048 1329.1012" xmlns="http://www.w3.org/2000/svg"><path d="M466.33 412.72H329.114c.22-2.344.347-5.068.347-7.82 0-13.596-3.072-26.473-8.562-37.975l.23.533q-12.29-16.998-67.585-16.998c-3.994-.34-8.642-.533-13.336-.533-20.8 0-40.715 3.8-59.084 10.745l1.15-.382q-17.408 9.83-17.408 43.008c-.28 1.837-.44 3.956-.44 6.112 0 13.365 6.127 25.3 15.723 33.15l.076.06c8.448 4.76 18.494 7.685 29.197 7.985l.09.002 27.65 2.048q89.087 5.94 111.205 8.192c39.01.963 74.58 14.938 102.718 37.728l-.318-.25c16.33 15.823 27.223 37.17 29.66 61.02l.036.42c1.83 14.918 2.872 32.186 2.872 49.7 0 .67-.002 1.343-.005 2.014v-.104c.26 4.46.408 9.68.408 14.932 0 29.41-4.644 57.735-13.238 84.283l.54-1.934q-22.937 56.32-102.4 71.27c-26.622 4.14-57.33 6.506-88.59 6.506-4.855 0-9.698-.057-14.526-.17l.718.012c-8.064.368-17.52.577-27.024.577-47.382 0-93.547-5.208-137.954-15.084l4.21.786c-34.75-9.084-62.025-34.667-73.304-67.665l-.22-.738c-7.373-25.818-11.614-55.47-11.614-86.112 0-3.424.053-6.835.158-10.233l-.012.497h137.42v11.47q0 35.634 20.48 45.874c9.89 4.657 21.48 7.376 33.705 7.376.247 0 .494 0 .74-.003h50.548c3.13.19 6.787.3 10.47.3 13.778 0 27.2-1.527 40.105-4.42l-1.217.228c11.436-4.053 20.36-12.71 24.684-23.684l.096-.278c1.977-7.1 3.113-15.253 3.113-23.67 0-.967-.014-1.93-.044-2.89l.003.14q0-36.25-26.42-44.03c-26.52-4.24-58.234-7.32-90.42-8.556l-1.535-.047q-65.946-4.71-91.546-9.01-67.38-12.7-89.703-52.02c-13.114-26.248-20.79-57.18-20.79-89.907 0-3.962.113-7.898.335-11.805l-.025.542c-.07-2.27-.11-4.937-.11-7.615 0-26.49 3.93-52.06 11.243-76.16l-.484 1.855c6.182-19.597 18.26-35.85 34.127-47.12l.28-.19c25.05-16.915 55.585-27.562 88.503-29.067l.38-.014q45.056-3.89 99.942-3.89c5.71-.22 12.414-.343 19.148-.343 36.705 0 72.546 3.704 107.167 10.758l-3.435-.585q89.702 24.166 89.702 134.963c0 6.144 0 15.155-1.434 27.238zm603.955 373.554V237.82h275.046c3.217-.12 6.995-.19 10.788-.19 26.796 0 52.79 3.432 77.57 9.878l-2.137-.472c43.183 12.35 76.87 44.686 90.86 86.096l.277.944c7.848 27.086 12.36 58.2 12.36 90.365 0 4.81-.1 9.595-.3 14.355l.023-.68c.265 5.35.416 11.62.416 17.923 0 36.325-5.012 71.48-14.38 104.81l.652-2.722c-16.138 46.305-57.955 79.575-107.966 82.924l-.373.02q-9.627 1.638-81.92 2.867h-112.64v141.517zm147.66-268.902h92.775c1.87.077 4.067.12 6.273.12 16.75 0 32.915-2.514 48.136-7.185l-1.162.306c9.588-6.453 16.138-16.79 17.393-28.705l.016-.172c1.862-11.273 2.925-24.264 2.925-37.503 0-1.863-.02-3.722-.062-5.575l.005.276c.094-2.155.148-4.683.148-7.224 0-15.775-2.07-31.067-5.957-45.618l.28 1.232c-5.944-16.035-20.522-27.52-37.942-28.867l-.15-.01h-122.675zm631.81 174.08H1652.53l-26.42 94.822h-152.78l163.84-548.454h223.437l166.91 548.454h-149.503zm-29.288-106.906l-69.018-237.568-67.175 237.568zM866.51 315.03h.12c60.724 0 114.937 27.877 150.538 71.532l.278.35 31.744-68.197c-49.95-47.1-117.468-76.05-191.747-76.05-114.713 0-213.3 69.044-256.473 167.842l-.702 1.802h-61.44l-37.07 79.257h79.873v21.914c.037 9.424.557 18.68 1.537 27.798l-.102-1.173h-40.96l-36.66 78.643h97.076c44.062 98.037 140.857 165.073 253.31 165.073.514 0 1.028 0 1.542-.003h-.08l1.005.002c57.523 0 110.99-17.362 155.45-47.13l-1.012.638v-96.256c-35.77 40.74-87.962 66.316-146.126 66.316-67.836 0-127.546-34.79-162.26-87.5l-.453-.73h203.366l36.66-78.643H673.79c-1.325-8.582-2.082-18.482-2.082-28.558 0-7.18.385-14.273 1.134-21.255l-.075.866H966.45l37.07-79.258H698.16c34.195-58.605 96.73-97.384 168.33-97.485h.016z"/></svg>