<svg height="24" viewBox="0 0 24 24" width="24" xmlns="http://www.w3.org/2000/svg"><path d="m15 6c0 .55228475-.4477153 1-1 1s-1-.44771525-1-1h-10v1.99946819c1.2410063.93091934 2 2.40002441 2 4.00053181s-.7589937 3.0696125-2 4.0005318v1.9994682h10c0-.5522847.4477153-1 1-1s1 .4477153 1 1h6v-1.9994682c-1.2410063-.9309193-2-2.4000244-2-4.0005318s.7589937-3.06961247 2-4.00053181v-1.99946819zm8 12c0 1.1045695-.8954305 2-2 2h-18c-1.1045695 0-2-.8954305-2-2v-3.1119202l.49927404-.2888144c.92185224-.5332628 1.50072596-1.5153012 1.50072596-2.5992654s-.57887372-2.06600263-1.50072596-2.59926535l-.49927404-.28881444v-3.11192021c0-1.1045695.8954305-2 2-2h18c1.1045695 0 2 .8954305 2 2v3.11192021l-.499274.28881444c-.9218523.53326272-1.500726 1.51530115-1.500726 2.59926535s.5788737 2.0660026 1.500726 2.5992654l.499274.2888144zm-9-2c-.5522847 0-1-.4477153-1-1s.4477153-1 1-1 1 .4477153 1 1-.4477153 1-1 1zm0-3c-.5522847 0-1-.4477153-1-1s.4477153-1 1-1 1 .4477153 1 1-.4477153 1-1 1zm0-3c-.5522847 0-1-.44771525-1-1s.4477153-1 1-1 1 .44771525 1 1-.4477153 1-1 1z" fill-rule="evenodd"/></svg>